# xmcd
# 
# Track frame offsets:
#     150
#     20717
#     41037
#     54225
#     71500
#     91560
#     107620
#     126077
#     142175
#     156660
#     174207
#     195725
#     209467
#     227917
#     246677
#     264830
# 
# Disc length: 3755
# 
# Revision: 6
# Processed by: cddbd v1.5.2PL0 Copyright (c) Steve Scherf et al.
# Submitted via: BonkEnc v1.0
# 
DISCID=e60ea910
DTITLE=Zezé di Camargo and Luciano - Dois corações e uma história · Vol. 7
DYEAR=2004
DGENRE=Brega
TTITLE0=Dois Amigos (dueto com Julio Iglesias)
TTITLE1=Corpo e Alma (Bridge Over Troubled Water) (Leonardo, Chitãozinho and Xororó e Fat Family) [ao vivo]
TTITLE2=Fio de Cabelo (dueto com Chitãozinho) [ao vivo]
TTITLE3=Todas as Manhãs (dueto com Sérgio Reis)
TTITLE4=Retrovisor (dueto com Fagner)
TTITLE5=Prá Desbotar A Saudade (dueto com Fátima Leão)
TTITLE6=Tenho Sede (dueto com Dominguinhos)
TTITLE7=Marcas Do Que Se Foi
TTITLE8=Viola Enluarada - Vamos Dar As Mãos E Cantar (com Chitãozinho and Xororó e Leandro and Leonardo) [ao vivo]
TTITLE9=Maria, Mãe De Todos Nós
TTITLE10=Meu País
TTITLE11=Eu Só Quero Um Xodó (dueto com Daniela Mercury) [ao vivo]
TTITLE12=Doy La Vida Por Un Beso (Dou A Vida Por Um Beijo)
TTITLE13=Antes De Volver A Casa (Antes De Voltar Pra Casa)
TTITLE14=Da Boca Pra Fora [ao vivo]
TTITLE15=Mexe Que É Bom [ao vivo]
EXTD=Sony Music Columbia 509975155025
EXTT0=
EXTT1=
EXTT2=
EXTT3=
EXTT4=
EXTT5=
EXTT6=
EXTT7=
EXTT8=
EXTT9=
EXTT10=
EXTT11=
EXTT12=
EXTT13=
EXTT14=
EXTT15=
PLAYORDER=
